<?xml version="1.0" encoding="UTF-8"?><svg xmlns="http://www.w3.org/2000/svg" xmlns:xlink="http://www.w3.org/1999/xlink" viewBox="0 0 48 48" version="1.1"><g id="surface1"><path d="M37 45H11a3 3 0 0 1-3-3V6a3 3 0 0 1 3-3h19l10 10v29a3 3 0 0 1-3 3z" fill="#DE5245"/><path d="M40 13H30V3z" fill="#EEA6A0"/><path d="M30 13l10 10V13z" fill="#B3433A"/><path d="M25 26.5a4.501 4.501 0 0 1-9 0 4.501 4.501 0 0 1 9 0z" fill="none" stroke-width="2" stroke-linecap="butt" stroke-linejoin="miter" stroke="#FFF" stroke-opacity="1" stroke-miterlimit="10"/><path d="M27.563 29A7.539 7.539 0 0 1 24 33.129V38h9v-9z" fill="#FFF"/></g><metadata><rdf:RDF xmlns:rdf="http://www.w3.org/1999/02/22-rdf-syntax-ns#" xmlns:rdfs="http://www.w3.org/2000/01/rdf-schema#" xmlns:dc="http://purl.org/dc/elements/1.1/"><rdf:Description about="https://iconscout.com/legal#licenses" dc:title="google,drawing" dc:description="google,drawing" dc:publisher="Iconscout" dc:date="2017-12-15" dc:format="image/svg+xml" dc:language="en"><dc:creator><rdf:Bag><rdf:li>Icons8</rdf:li></rdf:Bag></dc:creator></rdf:Description></rdf:RDF></metadata></svg>